# xmcd
#
# Track frame offsets:
#	150
#	28470
#	55900
#	80895
#	96945
#
# Disc length: 2282 seconds
#
# Revision: 0
# Processed by: cddbd v1.5.1PL2 Copyright (c) Steve Scherf et al.
# Submitted via: dBpowerAMP V4.0
#
DISCID=4308e805
DTITLE=Sickness - SLOGUN - The Scars of Happiness - Always Numb
DYEAR=1900
DGENRE=Noise
TTITLE0=Sickness - Reverence, Dread and Awe
TTITLE1=Sickness - My Coma
TTITLE2=Sickness - Self-Autopsy
TTITLE3=Sickness - Kill to Forget
TTITLE4=SLOGUN - Always Numb
EXTD=
EXTT0=
EXTT1=
EXTT2=
EXTT3=
EXTT4=
PLAYORDER=
